<svg preserveAspectRatio="xMidYMid meet" overflow="hidden" style="display: block;" width="448.844" height="467.301" viewBox="0 0 448.844 467.301" fill="none" xmlns="http://www.w3.org/2000/svg">
<g id="Backpack / ba l&#195;&#180;">
<path id="Vector" d="M30.3655 327.512C32.2431 327.539 32.2431 327.539 34.1585 327.567C37.2283 327.614 40.2965 327.679 43.3655 327.762C43.3714 328.773 43.3773 329.784 43.3833 330.826C43.4408 340.402 43.5137 349.978 43.6013 359.554C43.6458 364.476 43.6851 369.398 43.712 374.32C43.7382 379.079 43.7787 383.838 43.8287 388.598C43.8453 390.404 43.8569 392.21 43.8632 394.016C43.9132 407.077 44.6851 419.123 50.596 431.055C51.3655 432.762 51.3655 432.762 51.3655 434.762C36.9061 435.335 25.7075 434.729 14.3655 424.762C13.7597 424.261 13.1538 423.759 12.5296 423.243C6.40697 417.748 1.98327 409.855 0.36554 401.762C0.264782 399.839 0.217283 397.913 0.204407 395.987C0.194799 394.826 0.185192 393.664 0.175293 392.467C0.171043 391.216 0.166793 389.965 0.162415 388.676C0.156714 387.386 0.151014 386.097 0.145142 384.768C0.134653 382.04 0.128796 379.311 0.125305 376.582C0.119822 373.097 0.0957903 369.611 0.0673332 366.126C0.0441632 362.788 0.0422547 359.451 0.0374146 356.114C0.0250678 354.867 0.0127209 353.62 0 352.335C0.0194084 344.782 0.602562 340.078 5.55304 334.137C13.5489 327.385 20.2166 327.233 30.3655 327.512Z" fill="url(#paint0_linear_0_4)"/>
<path id="Vector_2" d="M275.99 18.431C287.682 28.3304 295.228 39.6863 300.365 54.1185C296.325 54.3808 292.287 54.54 288.24 54.681C287.098 54.7564 285.956 54.8318 284.779 54.9095C276.445 55.1275 276.445 55.1275 273.334 52.22C271.808 49.9148 270.596 47.5901 269.365 45.1185C261.597 34.4807 249.715 27.9297 237.107 24.5052C219.249 21.9867 202.57 25.0433 187.928 35.931C181.892 40.9877 176.9 47.0491 173.365 54.1185C165.115 54.1185 156.865 54.1185 148.365 54.1185C157.292 31.8021 169.856 17.1869 191.732 6.65754C220.354 -5.46834 251.729 -0.731003 275.99 18.431Z" fill="url(#paint1_linear_0_4)"/>
<path id="Vector_3" d="M419.303 327.387C420.407 327.35 421.511 327.312 422.648 327.274C430.244 327.193 436.081 328.316 442.365 332.762C446.849 337.477 448.48 341.928 448.542 348.344C448.561 350.062 448.561 350.062 448.581 351.815C448.589 353.056 448.596 354.297 448.604 355.575C448.612 356.854 448.62 358.133 448.628 359.451C448.643 362.165 448.653 364.878 448.66 367.592C448.671 371.04 448.706 374.488 448.746 377.936C448.778 381.253 448.783 384.57 448.791 387.887C448.809 389.112 448.826 390.336 448.844 391.597C448.815 403.105 445.992 412.083 438.365 420.762C437.864 421.368 437.362 421.974 436.846 422.598C431.329 428.745 423.469 433.088 415.365 434.762C413.924 434.84 412.48 434.87 411.037 434.86C410.238 434.857 409.439 434.853 408.615 434.85C407.79 434.842 406.965 434.833 406.115 434.825C405.275 434.82 404.434 434.816 403.568 434.811C401.501 434.799 399.433 434.781 397.365 434.762C397.565 434.174 397.764 433.586 397.97 432.98C399.363 428.861 400.71 424.73 401.99 420.575C402.23 419.797 402.47 419.02 402.717 418.219C404.167 412.723 404.542 407.323 404.646 401.661C404.665 400.872 404.683 400.083 404.701 399.27C404.74 397.566 404.776 395.862 404.811 394.157C404.866 391.464 404.926 388.771 404.988 386.077C405.141 379.395 405.285 372.712 405.428 366.03C405.549 360.37 405.674 354.71 405.805 349.05C405.865 346.391 405.919 343.731 405.973 341.071C406.009 339.453 406.047 337.834 406.084 336.216C406.098 335.472 406.111 334.727 406.125 333.96C406.343 325.205 411.739 327.481 419.303 327.387Z" fill="url(#paint2_linear_0_4)"/>
<rect id="Rectangle 35" x="41.6719" y="106.964" width="364.827" height="360.337" rx="60" fill="url(#paint3_linear_0_4)"/>
<rect id="Rectangle 36" x="20.3965" y="51.6367" width="407.378" height="190.794" rx="54" fill="url(#paint4_linear_0_4)"/>
<path id="Vector_4" d="M141.987 317.374C142.722 317.369 143.457 317.364 144.215 317.358C146.662 317.344 149.109 317.351 151.556 317.358C153.318 317.352 155.079 317.345 156.841 317.337C161.613 317.319 166.386 317.32 171.159 317.326C175.147 317.329 179.136 317.323 183.124 317.317C192.536 317.303 201.947 317.305 211.358 317.316C221.059 317.327 230.759 317.313 240.459 317.287C248.797 317.264 257.134 317.258 265.471 317.264C270.447 317.267 275.423 317.265 280.398 317.247C285.078 317.232 289.757 317.236 294.436 317.255C296.15 317.258 297.864 317.255 299.578 317.245C309.665 317.188 316.963 317.342 325.115 324.012C331.479 331.79 332.003 338.628 331.887 348.378C331.865 350.494 331.887 352.607 331.912 354.723C331.943 369.584 327.732 381.079 317.615 392.012C307.478 401.742 295.851 403.062 282.435 403.052C281.023 403.058 279.611 403.065 278.199 403.073C274.379 403.09 270.559 403.095 266.738 403.096C264.346 403.098 261.955 403.102 259.563 403.107C251.206 403.126 242.848 403.134 234.491 403.133C226.723 403.131 218.955 403.152 211.187 403.184C204.5 403.21 197.813 403.221 191.125 403.22C187.139 403.219 183.154 403.225 179.168 403.246C175.415 403.266 171.663 403.265 167.91 403.251C165.892 403.248 163.875 403.264 161.858 403.282C150.209 403.202 141.163 400.493 132.365 392.762C131.759 392.261 131.154 391.759 130.529 391.242C122.411 383.957 117.879 373.157 117.13 362.38C117.013 359.071 116.949 355.774 116.94 352.463C116.928 350.397 116.879 348.335 116.828 346.27C116.714 336.833 117.972 329.271 124.74 322.324C130.674 318.793 135.044 317.387 141.987 317.374Z" fill="url(#paint5_linear_0_4)"/>
<path id="Vector_5" d="M318.491 201.262C325.161 205.024 329.303 210.466 331.366 217.762C331.741 222.038 331.737 226.302 331.736 230.593C331.741 232.625 331.777 234.656 331.815 236.688C331.838 244.657 331.752 251.192 325.953 257.234C324.428 258.575 324.428 258.575 321.366 260.762C320.644 261.36 319.922 261.958 319.178 262.575C313.771 264.858 307.862 264.203 302.178 263.2C295.667 259.872 291.234 255.501 288.366 248.762C287.817 244.245 287.85 239.733 287.865 235.187C287.866 233.031 287.824 230.879 287.78 228.723C287.707 220.522 288.338 213.591 293.366 206.762C295.717 204.508 295.717 204.508 297.991 203.2C299.124 202.517 299.124 202.517 300.28 201.821C306.112 198.861 312.487 198.606 318.491 201.262Z" fill="#E0AB87"/>
<path id="Vector_6" d="M151.025 203.063C155.733 206.482 158.546 211.306 160.365 216.762C160.639 221.245 160.678 225.73 160.715 230.221C160.732 231.698 160.759 233.175 160.797 234.651C161.204 250.448 161.204 250.448 155.365 256.762C154.452 257.781 154.452 257.781 153.521 258.821C150.203 261.584 147.822 263.55 143.365 263.762C142.708 263.823 142.05 263.883 141.373 263.946C135.305 264.292 130.494 263.059 125.365 259.762C120.643 255.504 117.664 251.03 117.074 244.583C117.034 241.41 116.994 238.236 116.994 235.062C116.99 233.031 116.954 231.003 116.916 228.973C116.889 220.132 117.566 213.368 123.295 206.422C132.263 199.057 140.633 197.475 151.025 203.063Z" fill="#DFA984"/>
<rect id="Rectangle 33" x="116.821" y="199.709" width="44.1279" height="64.4102" rx="22.064" fill="url(#paint6_linear_0_4)"/>
<rect id="Rectangle 34" x="287.689" y="199.709" width="44.1279" height="64.4102" rx="22.064" fill="url(#paint7_linear_0_4)"/>
</g>
<defs>
<linearGradient id="paint0_linear_0_4" x1="25.6828" y1="327.437" x2="25.6828" y2="434.913" gradientUnits="userSpaceOnUse">
<stop stop-color="#89552E"/>
<stop offset="1" stop-color="#543426"/>
</linearGradient>
<linearGradient id="paint1_linear_0_4" x1="224.365" y1="0" x2="224.365" y2="54.9932" gradientUnits="userSpaceOnUse">
<stop stop-color="#89552E"/>
<stop offset="1" stop-color="#543426"/>
</linearGradient>
<linearGradient id="paint2_linear_0_4" x1="423.105" y1="327.188" x2="423.105" y2="434.862" gradientUnits="userSpaceOnUse">
<stop stop-color="#89552E"/>
<stop offset="1" stop-color="#543426"/>
</linearGradient>
<linearGradient id="paint3_linear_0_4" x1="224.085" y1="106.964" x2="224.085" y2="467.301" gradientUnits="userSpaceOnUse">
<stop stop-color="#C1753E"/>
<stop offset="1" stop-color="#8A552E"/>
</linearGradient>
<linearGradient id="paint4_linear_0_4" x1="224.085" y1="51.6367" x2="224.085" y2="242.431" gradientUnits="userSpaceOnUse">
<stop stop-color="#C1753E"/>
<stop offset="1" stop-color="#8A552E"/>
</linearGradient>
<linearGradient id="paint5_linear_0_4" x1="224.367" y1="317.238" x2="224.367" y2="403.282" gradientUnits="userSpaceOnUse">
<stop stop-color="#89552E"/>
<stop offset="1" stop-color="#543426"/>
</linearGradient>
<linearGradient id="paint6_linear_0_4" x1="138.885" y1="199.709" x2="138.885" y2="264.12" gradientUnits="userSpaceOnUse">
<stop stop-color="#EBBFA3"/>
<stop offset="1" stop-color="#D7986B"/>
</linearGradient>
<linearGradient id="paint7_linear_0_4" x1="309.753" y1="199.709" x2="309.753" y2="264.12" gradientUnits="userSpaceOnUse">
<stop stop-color="#EBBFA3"/>
<stop offset="1" stop-color="#D7986B"/>
</linearGradient>
</defs>
</svg>
